<?xml version="1.0" encoding="utf-8"?>
<!-- Generator: Adobe Illustrator 25.0.0, SVG Export Plug-In . SVG Version: 6.00 Build 0)  -->
<svg version="1.1" id="Layer_1" xmlns="http://www.w3.org/2000/svg" xmlns:xlink="http://www.w3.org/1999/xlink" x="0px" y="0px"
	 viewBox="0 0 899.28 544.17" style="enable-background:new 0 0 899.28 544.17;" xml:space="preserve">
<style type="text/css">
	.st0{fill:#F3F2F2;}
</style>
<path class="st0" d="M896.15,123.45c-0.63-22.44-8.98-41.4-23.92-57.7c-16.86-18.39-38.28-29.87-61.1-38.73
	c-33.18-12.89-68.04-18.7-103.3-21.78c-24.67-2.15-49.45-3.18-74.2-4.09c-22.12-0.81-44.28-1.03-66.42-1.07
	c-71.49-0.13-142.98-0.06-214.47-0.04c-13.06,0-11.67-1.3-11.68,11.87c-0.03,49.49-0.04,98.99,0,148.48
	c0.01,9.54-2.43,18.13-10.88,23.34c-6.17,3.8-12.86,7.23-19.77,9.28c-24.33,7.19-49.29,7.35-74.28,4.79
	c-12.78-1.31-25.39-3.83-36.86-10.16c-10.42-5.75-16.34-14.01-16.3-26.47c0.17-51.33,0.08-102.65,0.06-153.98
	c0-6.6-0.55-7.15-7.14-7.15c-56.33-0.02-112.65-0.01-168.98,0c-6.55,0-6.86,0.3-6.87,6.7c-0.01,51.49-0.2,102.99,0.2,154.48
	c0.06,7.99,2.03,16.24,4.6,23.87c4.72,14.04,15.65,23.42,27.33,31.58c22.97,16.04,49.4,23.82,76.24,30.1
	c42.13,9.86,85.07,13.7,128.19,15.07c23.27,0.74,46.61-0.26,69.91-0.94c10.45-0.3,20.86-1.74,31.29-2.67
	c11.92-1.06,23.84-2.94,35.77-3.03c46.16-0.36,92.32-0.15,138.48-0.15c0-0.33,0-0.66,0-1c51.47,0,102.94,0.22,154.41-0.13
	c15.43-0.11,30.88-1.52,46.28-2.85c31.48-2.72,62.4-8.45,92.1-19.53c23.1-8.62,44.44-20.19,62.23-37.86
	C886.7,174.18,896.92,151.33,896.15,123.45z M690.3,172.76c-16.27,12.99-35.69,18.35-55.87,21.13c-8.87,1.22-17.88,1.95-26.83,2.04
	c-25.33,0.27-50.66,0.11-75.98,0.09c-6.2-0.01-6.55-0.35-6.55-6.5c-0.03-20.5-0.01-40.99-0.01-61.49c0-20.5-0.02-40.99,0.01-61.49
	c0.01-6.15,0.35-6.5,6.55-6.5c24.83-0.02,49.67-0.5,74.48,0.14c21.3,0.55,42.59,2.13,62.82,9.96c24.84,9.61,41.33,26.51,43.74,53.78
	C714.41,143.85,705.86,160.34,690.3,172.76z"/>
<path class="st0" d="M888.49,367.76c-10.66-18.74-26.78-32.08-44.74-43.35c-27.82-17.46-58.36-28.37-90.06-36.09
	c-46.97-11.44-94.86-15.58-143.06-16.18c-22.8-0.28-45.65-0.1-68.41,1.11c-21.23,1.13-42.56,2.82-63.51,6.27
	c-24.26,3.99-48.3,9.6-72.16,15.61c-13.02,3.28-25.52,8.68-38.14,13.42c-4.17,1.57-5.48,0.55-5.38-3.66
	c0.12-5.33,0.04-10.66,0.02-16c-0.02-7.51-0.35-7.85-7.95-7.85c-55.49-0.01-110.99-0.01-166.48,0c-7.5,0-7.57,0.06-7.57,7.5
	c-0.01,79.99-0.01,159.98,0,239.97c0,7.45,0.07,7.52,7.55,7.52c55.49,0.01,110.99,0.01,166.48,0c7.95,0,7.96-0.01,7.97-8.11
	c0.01-6.59,0-13.18,0-20.77c2.69,1.01,3.94,1.41,5.13,1.93c20.65,9.1,42.13,15.68,64.1,20.67c37.78,8.59,76.18,12.86,114.8,14.02
	c30.27,0.91,60.62,0.11,90.91-0.9c18.75-0.63,37.51-2.44,56.13-4.82c49.38-6.33,97.37-17.62,141.14-42.64
	c22.47-12.85,42.06-28.87,54.31-52.26C902.76,417.94,902.63,392.61,888.49,367.76z M715.44,411.19
	c-2.19,27.18-18.98,42.28-41.72,53.21c-23.06,11.08-47.55,14.2-72.76,14.74c-21.5,0.46-42.87-0.11-64-4.19
	c-17.76-3.43-34.9-8.66-49.68-19.75c-29.43-22.1-29.06-66.3-3.5-88.74c18.17-15.95,39.79-22.55,62.66-26.15
	c14.73-2.32,29.73-2.92,44.62-4.29c23.72,0.48,46.95,3.2,69.62,9.95c15.33,4.57,29.68,11.15,40.82,23.07
	C712.55,380.88,716.75,394.94,715.44,411.19z"/>
</svg>
